<?xml version="1.0" encoding="UTF-8"?>
<svg id="Layer_1" xmlns="http://www.w3.org/2000/svg" xmlns:xlink="http://www.w3.org/1999/xlink" viewBox="0 0 1106.63 456.52">
  <defs>
    <style>
      .cls-1 {
        fill: url(#New_Gradient_Swatch_1-19);
      }

      .cls-2 {
        fill: url(#New_Gradient_Swatch_1-4);
        stroke: url(#New_Gradient_Swatch_1-5);
      }

      .cls-2, .cls-3, .cls-4, .cls-5, .cls-6, .cls-7, .cls-8 {
        stroke-miterlimit: 10;
      }

      .cls-9 {
        fill: url(#New_Gradient_Swatch_1-18);
      }

      .cls-3 {
        fill: url(#linear-gradient-4);
        stroke: url(#New_Gradient_Swatch_1-6);
      }

      .cls-10 {
        fill: url(#New_Gradient_Swatch_1-21);
      }

      .cls-11 {
        fill: url(#New_Gradient_Swatch_1-13);
      }

      .cls-12 {
        fill: url(#New_Gradient_Swatch_1-10);
      }

      .cls-13 {
        font-family: OakesGrotesk-Regular, 'Oakes Grotesk';
        font-size: 53px;
      }

      .cls-13, .cls-14 {
        fill: #2d3f4f;
      }

      .cls-15 {
        fill: url(#New_Gradient_Swatch_1-16);
      }

      .cls-16 {
        fill: url(#New_Gradient_Swatch_1-11);
      }

      .cls-4 {
        fill: url(#linear-gradient-6);
        stroke: url(#New_Gradient_Swatch_1-8);
      }

      .cls-17 {
        fill: url(#New_Gradient_Swatch_1-17);
      }

      .cls-18 {
        fill: url(#New_Gradient_Swatch_1-23);
      }

      .cls-19 {
        letter-spacing: -.1em;
      }

      .cls-20 {
        fill: url(#New_Gradient_Swatch_1-12);
      }

      .cls-21 {
        fill: url(#New_Gradient_Swatch_1-25);
      }

      .cls-22 {
        fill: #559a26;
      }

      .cls-23 {
        letter-spacing: -.1em;
      }

      .cls-24 {
        fill: url(#New_Gradient_Swatch_1-26);
      }

      .cls-25 {
        fill: url(#New_Gradient_Swatch_1-9);
      }

      .cls-5 {
        fill: url(#linear-gradient);
        stroke: url(#New_Gradient_Swatch_1);
      }

      .cls-26 {
        fill: url(#New_Gradient_Swatch_1-22);
      }

      .cls-27 {
        fill: url(#New_Gradient_Swatch_1-24);
      }

      .cls-6 {
        fill: url(#linear-gradient-5);
        stroke: url(#New_Gradient_Swatch_1-7);
      }

      .cls-28 {
        letter-spacing: 0em;
      }

      .cls-7 {
        fill: url(#linear-gradient-2);
        stroke: url(#New_Gradient_Swatch_1-2);
      }

      .cls-29 {
        fill: url(#New_Gradient_Swatch_1-15);
      }

      .cls-30 {
        fill: url(#New_Gradient_Swatch_1-20);
      }

      .cls-8 {
        fill: url(#linear-gradient-3);
        stroke: url(#New_Gradient_Swatch_1-3);
      }

      .cls-31 {
        fill: url(#New_Gradient_Swatch_1-14);
      }
    </style>
    <linearGradient id="linear-gradient" x1="32.27" y1="2.01" x2="35.14" y2="2.01" gradientUnits="userSpaceOnUse">
      <stop offset="0" stop-color="#0e92bf"/>
      <stop offset="1" stop-color="#5a9a2a"/>
    </linearGradient>
    <linearGradient id="New_Gradient_Swatch_1" data-name="New Gradient Swatch 1" x1="31.88" y1="2" x2="35.52" y2="2" gradientUnits="userSpaceOnUse">
      <stop offset="0" stop-color="#0e92bf" stop-opacity=".9"/>
      <stop offset=".67" stop-color="#5a9a2a" stop-opacity=".9"/>
    </linearGradient>
    <linearGradient id="linear-gradient-2" x1="32.33" y1="112.4" x2="131.05" y2="112.4" xlink:href="#linear-gradient"/>
    <linearGradient id="New_Gradient_Swatch_1-2" data-name="New Gradient Swatch 1" x1="0" y1="112.56" x2="100.05" y2="112.56" xlink:href="#New_Gradient_Swatch_1"/>
    <linearGradient id="linear-gradient-3" x1="180.02" y1="453.86" x2="183.55" y2="453.86" xlink:href="#linear-gradient"/>
    <linearGradient id="New_Gradient_Swatch_1-3" data-name="New Gradient Swatch 1" x1="179.62" y1="453.87" x2="183.96" y2="453.87" xlink:href="#New_Gradient_Swatch_1"/>
    <linearGradient id="New_Gradient_Swatch_1-4" data-name="New Gradient Swatch 1" x1="108.19" y1="342.45" x2="211.07" y2="342.45" xlink:href="#New_Gradient_Swatch_1"/>
    <linearGradient id="New_Gradient_Swatch_1-5" data-name="New Gradient Swatch 1" x1="110.97" y1="342.29" x2="215.24" y2="342.29" xlink:href="#New_Gradient_Swatch_1"/>
    <linearGradient id="linear-gradient-4" x1="180.09" x2="182.97" xlink:href="#linear-gradient"/>
    <linearGradient id="New_Gradient_Swatch_1-6" data-name="New Gradient Swatch 1" x1="179.72" x2="183.35" xlink:href="#New_Gradient_Swatch_1"/>
    <linearGradient id="linear-gradient-5" x1=".5" y1="227.76" x2="214.73" y2="227.76" xlink:href="#linear-gradient"/>
    <linearGradient id="New_Gradient_Swatch_1-7" data-name="New Gradient Swatch 1" x1="0" y1="227.76" x2="215.23" y2="227.76" xlink:href="#New_Gradient_Swatch_1"/>
    <linearGradient id="linear-gradient-6" y1="453.51" y2="453.51" xlink:href="#linear-gradient"/>
    <linearGradient id="New_Gradient_Swatch_1-8" data-name="New Gradient Swatch 1" y1="453.52" y2="453.52" xlink:href="#New_Gradient_Swatch_1"/>
    <linearGradient id="New_Gradient_Swatch_1-9" data-name="New Gradient Swatch 1" x1="111.87" y1="135.89" x2="163.3" y2="135.89" xlink:href="#New_Gradient_Swatch_1"/>
    <linearGradient id="New_Gradient_Swatch_1-10" data-name="New Gradient Swatch 1" x1="27.82" y1="47.99" x2="138.16" y2="47.99" xlink:href="#New_Gradient_Swatch_1"/>
    <linearGradient id="New_Gradient_Swatch_1-11" data-name="New Gradient Swatch 1" x1="144.94" y1="47.99" x2="193.33" y2="47.99" xlink:href="#New_Gradient_Swatch_1"/>
    <linearGradient id="New_Gradient_Swatch_1-12" data-name="New Gradient Swatch 1" x1="86.55" y1="76.34" x2="193.33" y2="76.34" xlink:href="#New_Gradient_Swatch_1"/>
    <linearGradient id="New_Gradient_Swatch_1-13" data-name="New Gradient Swatch 1" x1="27.82" y1="76.34" x2="81.21" y2="76.34" xlink:href="#New_Gradient_Swatch_1"/>
    <linearGradient id="New_Gradient_Swatch_1-14" data-name="New Gradient Swatch 1" x1="38.87" y1="105.15" x2="123.05" y2="105.15" xlink:href="#New_Gradient_Swatch_1"/>
    <linearGradient id="New_Gradient_Swatch_1-15" data-name="New Gradient Swatch 1" x1="82.99" y1="166.62" x2="139.94" y2="166.62" xlink:href="#New_Gradient_Swatch_1"/>
    <linearGradient id="New_Gradient_Swatch_1-16" data-name="New Gradient Swatch 1" x1="52.79" y1="135.89" x2="104.23" y2="135.89" xlink:href="#New_Gradient_Swatch_1"/>
    <linearGradient id="New_Gradient_Swatch_1-17" data-name="New Gradient Swatch 1" x1="130.56" y1="105.15" x2="183.09" y2="105.15" xlink:href="#New_Gradient_Swatch_1"/>
    <linearGradient id="New_Gradient_Swatch_1-18" data-name="New Gradient Swatch 1" x1="641.23" y1="60.99" x2="589.79" y2="60.99" gradientTransform="translate(699.07 380.66) rotate(-180)" xlink:href="#New_Gradient_Swatch_1"/>
    <linearGradient id="New_Gradient_Swatch_1-19" data-name="New Gradient Swatch 1" x1="616.08" y1="-26.9" x2="505.75" y2="-26.9" gradientTransform="translate(699.07 380.66) rotate(-180)" xlink:href="#New_Gradient_Swatch_1"/>
    <linearGradient id="New_Gradient_Swatch_1-20" data-name="New Gradient Swatch 1" x1="671.25" y1="-26.9" x2="622.87" y2="-26.9" gradientTransform="translate(699.07 380.66) rotate(-180)" xlink:href="#New_Gradient_Swatch_1"/>
    <linearGradient id="New_Gradient_Swatch_1-21" data-name="New Gradient Swatch 1" x1="671.25" y1="1.45" x2="564.47" y2="1.45" gradientTransform="translate(699.07 380.66) rotate(-180)" xlink:href="#New_Gradient_Swatch_1"/>
    <linearGradient id="New_Gradient_Swatch_1-22" data-name="New Gradient Swatch 1" x1="559.14" y1="1.45" x2="505.75" y2="1.45" gradientTransform="translate(699.07 380.66) rotate(-180)" xlink:href="#New_Gradient_Swatch_1"/>
    <linearGradient id="New_Gradient_Swatch_1-23" data-name="New Gradient Swatch 1" x1="600.98" y1="30.25" x2="516.79" y2="30.25" gradientTransform="translate(699.07 380.66) rotate(-180)" xlink:href="#New_Gradient_Swatch_1"/>
    <linearGradient id="New_Gradient_Swatch_1-24" data-name="New Gradient Swatch 1" x1="617.86" y1="91.73" x2="560.92" y2="91.73" gradientTransform="translate(699.07 380.66) rotate(-180)" xlink:href="#New_Gradient_Swatch_1"/>
    <linearGradient id="New_Gradient_Swatch_1-25" data-name="New Gradient Swatch 1" x1="582.16" y1="60.99" x2="530.72" y2="60.99" gradientTransform="translate(699.07 380.66) rotate(-180)" xlink:href="#New_Gradient_Swatch_1"/>
    <linearGradient id="New_Gradient_Swatch_1-26" data-name="New Gradient Swatch 1" x1="661.01" y1="30.25" x2="608.48" y2="30.25" gradientTransform="translate(699.07 380.66) rotate(-180)" xlink:href="#New_Gradient_Swatch_1"/>
  </defs>
  <g>
    <g>
      <path class="cls-5" d="M32.27,3.67c.95-1.11,1.88-2.21,2.88-3.32,0,0-1.12,1.15-2.88,3.32Z"/>
      <path class="cls-7" d="M74.73,221.13l24.49-19.18C-36.71,103.72,18.27,20.95,32.27,3.67c-91.01,106.34,42.46,217.46,42.46,217.46Z"/>
      <path class="cls-8" d="M183.55,451.53c-1.15,1.55-2.31,3.11-3.54,4.67,0,0,1.4-1.63,3.54-4.67Z"/>
      <path class="cls-2" d="M140.84,233.37l-28.97,20.81c137.01,86.7,86.54,176.21,71.69,197.34,89.74-121.08-42.71-218.15-42.71-218.15Z"/>
      <path class="cls-3" d="M182.97,3.67c-1.76-2.18-2.88-3.32-2.88-3.32,1,1.11,1.93,2.21,2.88,3.32Z"/>
      <path class="cls-6" d="M182.97,3.67c13.99,17.28,68.98,100.05-66.95,198.28l-41.29,32.44s-133.47,111.12-42.46,217.46c-13.99-17.28-68.98-100.05,66.95-198.28l41.29-32.44S273.97,110.01,182.97,3.67Z"/>
      <path class="cls-4" d="M32.27,451.85c1.76,2.18,2.88,3.32,2.88,3.32-1-1.11-1.93-2.21-2.88-3.32Z"/>
    </g>
    <g>
      <path class="cls-25" d="M160.1,128.63h-45.56c-3.57,0-3.57,14.51,0,14.51h45.56c4.27,0,4.27-14.51,0-14.51Z"/>
      <path class="cls-12" d="M33.56,55.49h97.73c9.16,0,9.16-14.99,0-14.99H33.56c-7.66,0-7.66,14.99,0,14.99Z"/>
      <path class="cls-16" d="M147.46,55.49h42.85c4.02,0,4.02-14.99,0-14.99h-42.85c-3.36,0-3.36,14.99,0,14.99Z"/>
      <path class="cls-20" d="M186.68,69.09h-94.57c-7.41,0-7.41,14.51,0,14.51h94.57c8.86,0,8.86-14.51,0-14.51Z"/>
      <path class="cls-11" d="M77.89,69.09H30.6c-3.71,0-3.71,14.51,0,14.51h47.29c4.43,0,4.43-14.51,0-14.51Z"/>
      <path class="cls-31" d="M117.81,97.89H43.25c-5.84,0-5.84,14.51,0,14.51h74.56c6.99,0,6.99-14.51,0-14.51Z"/>
      <path class="cls-29" d="M136.39,159.37h-50.44c-3.95,0-3.95,14.51,0,14.51h50.44c4.73,0,4.73-14.51,0-14.51Z"/>
      <path class="cls-15" d="M101.03,128.63h-45.56c-3.57,0-3.57,14.51,0,14.51h45.56c4.27,0,4.27-14.51,0-14.51Z"/>
      <path class="cls-17" d="M179.82,97.89h-46.52c-3.65,0-3.65,14.51,0,14.51h46.52c4.36,0,4.36-14.51,0-14.51Z"/>
    </g>
    <g>
      <path class="cls-9" d="M61.05,326.93h45.56c3.57,0,3.57-14.51,0-14.51h-45.56c-4.27,0-4.27,14.51,0,14.51Z"/>
      <path class="cls-1" d="M187.59,400.07h-97.73c-9.16,0-9.16,14.99,0,14.99h97.73c7.66,0,7.66-14.99,0-14.99Z"/>
      <path class="cls-30" d="M73.69,400.07H30.83c-4.02,0-4.02,14.99,0,14.99h42.85c3.36,0,3.36-14.99,0-14.99Z"/>
      <path class="cls-10" d="M34.47,386.47h94.57c7.41,0,7.41-14.51,0-14.51H34.47c-8.86,0-8.86,14.51,0,14.51Z"/>
      <path class="cls-26" d="M143.26,386.47h47.29c3.71,0,3.71-14.51,0-14.51h-47.29c-4.43,0-4.43,14.51,0,14.51Z"/>
      <path class="cls-18" d="M103.34,357.66h74.56c5.84,0,5.84-14.51,0-14.51h-74.56c-6.99,0-6.99,14.51,0,14.51Z"/>
      <path class="cls-27" d="M84.76,296.19h50.44c3.95,0,3.95-14.51,0-14.51h-50.44c-4.73,0-4.73,14.51,0,14.51Z"/>
      <path class="cls-21" d="M120.12,326.93h45.56c3.57,0,3.57-14.51,0-14.51h-45.56c-4.27,0-4.27,14.51,0,14.51Z"/>
      <path class="cls-24" d="M41.33,357.66h46.52c3.65,0,3.65-14.51,0-14.51h-46.52c-4.36,0-4.36,14.51,0,14.51Z"/>
    </g>
  </g>
  <path class="cls-14" d="M277.31,191.13c-19.42,1.92-37.16,3.6-54.9,5.51,0-.24-.24-.48-.48-.72,9.83-3.12,19.42-6.47,29.25-9.11,7.91-1.92,16.06-3.12,23.98-3.84,4.56-.48,6.71-2.16,8.39-6.23,16.06-39.08,32.61-77.92,48.67-117,1.92-4.8,4.32-7.67,10.07-7.43,5.27,0,7.43,2.64,9.35,6.95,10.31,26.37,20.86,52.51,31.41,78.64,15.1,38.12,30.21,76.24,45.31,114.6,1.2,2.88,4.8,6.95-.48,9.35s-12.71,0-14.63-4.32c-2.64-6.47-5.75-12.95-7.91-19.9-2.16-6.23-5.99-10.07-11.51-13.43-29.25-17.5-61.38-26.61-94.94-30.45-3.6-.48-5.03,1.2-6.23,4.08-7.91,19.18-16.06,38.12-24.22,57.3-2.64,5.99-10.55,9.59-16.3,6.47-1.2-.72-1.68-4.56-.96-6.47,7.19-17.74,14.63-35.24,22.06-52.99,1.2-2.88,2.4-5.99,4.32-11.03h-.24ZM343,81.32c-.48,0-1.2,0-1.68.24-13.91,33.57-28.05,66.89-42.2,100.94,33.09.96,63.3,8.63,93.5,23.5-17.02-42.68-33.33-83.91-49.63-124.91v.24Z"/>
  <path class="cls-14" d="M576.29,197.12c1.68,39.08,44.59,62.82,78.88,43.64,7.43-4.08,13.67-10.55,19.9-16.78,4.8-4.8,7.19-.72,10.55,1.2,3.36,2.16,3.84,4.56,1.2,7.67-18.46,23.26-42.44,33.81-71.93,28.05-28.53-5.75-46.03-23.98-52.51-52.27-8.63-37.16,10.07-72.89,43.4-84.39,45.79-16.06,92.79,17.74,92.07,66.17,0,5.51-2.88,6.47-7.43,6.47h-114.12v.24ZM682.26,181.78c-2.4-26.61-27.81-47.47-56.1-46.51-25.17.96-49.15,23.26-49.15,46.51h105.49-.24Z"/>
  <path class="cls-14" d="M1035.66,120.4c38.84-.48,70.25,30.45,70.97,69.77.48,39.56-30.45,71.69-69.29,72.17-39.08.48-70.97-31.41-71.21-70.97-.48-39.08,30.45-70.49,69.53-70.97ZM981.47,192.08c0,30.45,25.17,55.38,55.38,55.38s54.66-25.41,54.42-56.34c0-30.69-24.93-55.62-55.14-55.62s-54.9,25.17-54.66,56.58h0Z"/>
  <path class="cls-14" d="M743.16,139.34c12.23-11.51,25.41-17.26,40.52-18.7,31.89-2.88,58.74,19.66,59.7,51.55.72,26.85,0,53.94,0,81.04,0,5.99-3.36,5.99-7.67,5.99-4.56,0-7.43-.72-7.43-6.47.24-25.17-.48-50.35.48-75.52.72-22.3-14.63-39.32-35.72-41.48-22.54-2.4-43.4,11.51-48.19,32.61-1.2,5.03-1.44,10.31-1.44,15.34v67.37c0,7.19-5.99,11.03-12.23,7.43-1.68-.96-2.4-4.56-2.4-7.19v-122.04c0-4.32,2.64-5.51,6.23-5.27,3.6,0,8.15-1.2,8.63,4.8v10.55h-.48Z"/>
  <path class="cls-14" d="M888.93,138.86h-17.5c-4.8,0-6.23-2.16-6.23-6.47s-.72-8.63,5.75-8.63h17.74v-37.64c0-8.63,3.6-11.51,12.23-8.87,1.68.48,3.12,3.84,3.12,5.75.24,11.03,0,22.3,0,33.33v7.43h42.44c5.51,0,7.43,2.16,7.19,7.43,0,5.03-1.2,7.91-6.95,7.67-11.99-.24-23.74,0-35.72,0h-6.71c0,2.4-.48,4.08-.48,5.75v71.93c0,23.74,16.06,35.24,38.84,28.29,4.8-1.44,10.07.96,10.79,5.99.24,1.68-1.68,4.8-3.36,5.75-23.26,14.15-54.18.72-60.42-26.37-.96-4.56-1.44-9.35-1.44-14.15v-77.44l.72.24Z"/>
  <path class="cls-14" d="M468.64,156.84v93.5c0,8.63-3.6,11.51-11.99,8.63-1.68-.48-3.12-4.08-3.36-6.47-.24-22.3,0-44.83,0-67.37V61.9c0-7.67,5.03-11.27,12.23-7.91,1.68.72,2.88,4.08,2.88,6.23v96.38h0l.24.24Z"/>
  <path class="cls-14" d="M527.85,191.85v60.18c0,5.51-1.92,7.19-7.43,7.19s-7.91-.96-7.91-7.19v-120.84c0-6.23,2.88-6.95,7.91-7.19,5.27,0,7.43,1.44,7.43,7.19-.24,20.14,0,40.52,0,60.66Z"/>
  <circle class="cls-22" cx="523.52" cy="92.06" r="14.08"/>
  <text class="cls-13" transform="translate(246.38 339.08) scale(1.06 1)"><tspan x="0" y="0">PREVEN</tspan><tspan class="cls-19" x="203.87" y="0">T</tspan><tspan class="cls-23" x="229.18" y="0">A</tspan><tspan class="cls-28" x="263.81" y="0">TIVE CARE AND</tspan><tspan x="0" y="63.6">PRECISION MEDICINE SERVICES.</tspan></text>
</svg>