<svg version="1.0" xmlns="http://www.w3.org/2000/svg" width="1240.000000pt" height="319.000000pt" viewBox="0 0 1240.000000 319.000000" preserveAspectRatio="xMidYMid meet"><g transform="translate(0.000000,319.000000) scale(0.100000,-0.100000)" fill="#1a1a1a" stroke="#1a1a1a"><path d="M5123 2885 c-184 -57 -344 -267 -668 -879 l-58 -108 -113 4 c-78 3 -118 9 -130 19 -45 37 -206 260 -264 367 -17 31 -30 42 -47 42 -55 0 -9 -96 150 -313 27 -37 47 -70 44 -73 -5 -5 -139 62 -290 146 -69 37 -80 41 -93 28 -25 -24 -8 -41 114 -110 152 -86 181 -100 279 -132 78 -26 85 -31 153 -105 38 -43 70 -82 70 -86 0 -12 -109 -175 -117 -175 -5 0 -46 55 -93 123 -102 147 -256 306 -350 360 -123 71 -203 90 -380 91 -473 3 -804 -207 -902 -569 -30 -112 -30 -316 0 -428 42 -154 133 -285 245 -351 170 -99 487 -85 744 34 224 104 489 319 679 553 25 31 49 57 53 57 3 0 32 -36 64 -80 l58 -80 -129 -127 c-278 -277 -438 -564 -332 -598 42 -13 87 15 186 118 85 87 230 278 339 445 l28 42 81 -73 c154 -140 256 -201 406 -242 101 -28 320 -26 425 3 178 51 340 153 474 299 70 76 70 76 80 50 22 -56 52 -166 69 -247 15 -73 20 -85 39 -88 25 -4 28 29 38 363 7 244 8 250 41 228 33 -21 45 -14 111 71 74 96 83 89 83 -65 0 -89 3 -111 19 -130 26 -33 109 -36 273 -11 73 12 176 26 228 32 55 6 137 25 195 44 55 19 127 36 160 38 60 4 135 33 203 78 l32 22 0 -45 c0 -107 97 -61 165 76 15 32 32 60 37 63 15 10 28 -17 28 -57 0 -21 8 -47 19 -60 19 -23 19 -23 128 -11 192 21 196 20 265 -43 110 -102 238 -171 381 -205 225 -54 446 -26 510 64 99 139 -144 714 -345 817 -45 23 -137 25 -177 4 -48 -25 -98 -92 -141 -194 -89 -205 -138 -297 -179 -334 -48 -43 -60 -45 -88 -14 -145 157 -201 486 -142 836 21 128 21 135 4 147 -28 20 -58 -1 -177 -124 -188 -195 -269 -346 -227 -424 13 -25 74 -51 100 -43 30 10 24 45 -11 58 -45 17 -46 40 -6 121 33 68 103 158 210 271 l47 50 -5 -45 c-45 -392 -18 -605 99 -803 19 -32 35 -60 35 -62 0 -1 -37 -6 -82 -9 -46 -4 -99 -9 -119 -12 l-36 -5 -6 53 c-7 54 -31 88 -65 88 -9 0 -26 10 -38 21 -33 31 -59 20 -145 -57 -79 -71 -176 -140 -185 -132 -2 3 22 29 55 57 106 92 191 212 191 269 0 44 -20 55 -93 50 -104 -6 -235 -85 -295 -175 l-14 -23 -29 37 c-87 109 -271 170 -483 160 -61 -3 -122 -9 -135 -13 -23 -7 -24 -6 -17 32 4 21 48 161 98 311 50 149 88 279 85 287 -11 28 -43 18 -69 -21 -43 -66 -173 -302 -269 -491 -90 -178 -94 -183 -137 -202 -25 -11 -50 -20 -57 -20 -9 0 -14 72 -18 298 -10 476 -41 572 -187 572 -127 0 -385 -175 -666 -452 -68 -66 -85 -79 -104 -73 -20 6 -17 11 42 73 177 185 279 395 282 584 1 73 -2 91 -20 115 -43 59 -121 77 -211 48z m132 -57 c67 -30 46 -215 -46 -399 -63 -127 -258 -343 -319 -354 -142 -27 -228 -62 -304 -125 -32 -26 -58 -40 -77 -40 -16 0 -29 2 -29 5 0 9 209 393 258 475 203 336 390 496 517 438z m611 -336 c13 -18 28 -56 34 -85 15 -65 29 -326 29 -553 l1 -171 -117 -52 c-65 -28 -123 -51 -129 -51 -6 0 -24 19 -39 43 -72 108 -185 231 -280 302 -53 40 -199 115 -224 115 -20 0 34 55 174 179 310 275 490 364 551 273z m464 -499 c-17 -59 -36 -122 -41 -139 -7 -23 -18 -33 -46 -42 -20 -6 -39 -10 -41 -7 -2 2 31 71 74 154 43 82 80 148 82 146 3 -2 -10 -52 -28 -112z m-2857 22 c214 -38 347 -148 581 -483 l58 -83 -55 -72 c-57 -73 -255 -275 -337 -343 -353 -292 -804 -388 -1046 -223 -226 154 -280 613 -103 878 162 243 560 387 902 326z m5006 1 c94 -49 229 -265 301 -483 73 -221 47 -280 -133 -305 -195 -27 -460 53 -611 184 l-39 34 55 55 c57 57 100 135 189 343 56 130 106 186 168 186 23 0 54 -6 70 -14z m-3551 -88 c-94 -106 -220 -255 -282 -335 -27 -35 -51 -63 -53 -63 -2 0 -24 14 -49 30 -51 36 -56 65 -28 161 31 106 53 132 136 158 77 25 196 80 238 112 15 11 42 18 69 19 l43 0 -74 -82z m271 22 c130 -61 276 -192 379 -338 l42 -61 -29 -15 c-126 -66 -641 -191 -641 -156 0 15 -32 28 -106 44 -80 16 -184 60 -184 76 0 18 165 218 329 398 97 107 93 106 210 52z m-852 -124 c6 -5 -30 -76 -38 -76 -8 0 -79 77 -79 86 0 7 111 -3 117 -10z m138 -3 c-17 -41 -45 -136 -45 -154 0 -26 -19 -24 -51 7 l-28 27 21 41 c36 72 58 96 85 96 20 0 24 -4 18 -17z m2187 -54 c112 -22 176 -49 228 -96 70 -63 81 -88 73 -164 -6 -61 -6 -62 -50 -81 -53 -23 -217 -65 -290 -74 -100 -13 -287 53 -335 117 -17 23 -17 29 -3 114 27 156 35 166 140 188 41 9 186 7 237 -4z m667 -29 c-50 -82 -244 -270 -280 -270 -10 0 -12 53 -3 100 16 78 186 209 273 210 l33 0 -23 -40z m-1120 -39 c-38 -63 -120 -173 -125 -168 -3 2 11 45 31 94 29 72 41 91 63 100 50 20 56 16 31 -26z m-149 -36 c0 -20 -44 -116 -60 -130 -28 -25 -32 -17 -24 49 6 47 11 59 33 71 26 14 51 19 51 10z m-1679 -71 c32 -26 59 -50 59 -54 0 -5 16 -31 35 -60 l35 -52 -19 -26 c-40 -55 -162 -148 -181 -137 -15 9 -123 167 -123 179 0 13 120 196 129 196 3 0 32 -21 65 -46z m1529 -82 c0 -99 0 -99 -41 -162 l-41 -64 -60 113 c-34 63 -57 116 -52 121 7 7 182 89 192 90 1 0 2 -44 2 -98z m-219 -104 c24 -46 54 -105 67 -132 l22 -49 -27 -31 c-123 -137 -212 -214 -316 -271 -229 -126 -513 -134 -736 -20 -88 44 -239 166 -283 228 l-20 28 47 69 c45 65 51 70 120 95 l73 27 74 -17 c94 -22 306 -22 415 0 160 33 424 112 483 146 29 16 38 8 81 -73z m677 -69 c24 -10 49 -19 55 -20 28 -2 -42 -17 -85 -18 -70 -2 -78 4 -78 56 l0 45 33 -22 c17 -11 51 -30 75 -41z m-462 -90 c-3 -17 -6 -54 -6 -82 0 -57 -7 -55 -31 8 -16 42 -16 45 5 74 27 39 40 39 32 0z m-1596 -95 c0 -9 -165 -247 -248 -359 -73 -97 -204 -235 -223 -235 -41 0 75 192 218 362 101 119 253 259 253 232z"/></g></svg>