<svg width="1200" height="630" viewBox="0 0 1200 630" fill="none" xmlns="http://www.w3.org/2000/svg">
  <defs>
    <linearGradient id="bg" x1="0%" y1="0%" x2="100%" y2="100%"><stop offset="0%" style="stop-color:#faf5ff"/><stop offset="100%" style="stop-color:#f5f3f0"/></linearGradient>
    <linearGradient id="accent" x1="0%" y1="0%" x2="100%" y2="100%"><stop offset="0%" style="stop-color:#8b5cf6"/><stop offset="100%" style="stop-color:#a855f7"/></linearGradient>
  </defs>
  <rect width="1200" height="630" fill="url(#bg)"/>
  <ellipse cx="900" cy="200" rx="300" ry="250" fill="#f3e8ff" opacity="0.5"/>
  <ellipse cx="100" cy="400" rx="200" ry="180" fill="#ede9fe" opacity="0.4"/>
  <pattern id="dots" width="40" height="40" patternUnits="userSpaceOnUse"><circle cx="20" cy="20" r="1" fill="#8b5cf6" opacity="0.1"/></pattern>
  <rect width="1200" height="630" fill="url(#dots)"/>
  <!-- Brain silhouette - center area -->
  <circle cx="300" cy="280" r="60" fill="url(#accent)" opacity="0.15"/>
  <path d="M285 270 Q300 245 315 270 Q330 255 325 280 Q340 285 325 295 Q335 310 315 305 Q300 320 285 305 Q265 310 275 295 Q260 285 275 280 Q270 255 285 270Z" fill="url(#accent)" opacity="0.6"/>
  <text x="100" y="580" font-family="sans-serif" font-size="18" fill="#8b5cf6" font-weight="600" opacity="0.6">MENTAL HEALTH</text>
  <text x="1100" y="580" font-family="sans-serif" font-size="16" fill="#78716c" text-anchor="end" opacity="0.5">aliento.clinic</text>
</svg>
